<svg width="25" height="24" viewBox="0 0 25 24" fill="none" xmlns="http://www.w3.org/2000/svg">
<path d="M15.76 22.25H9.23998C4.32998 22.25 2.22998 20.15 2.22998 15.24V15.11C2.22998 10.67 3.97998 8.53 7.89998 8.16C8.29998 8.13 8.67998 8.43 8.71998 8.84C8.75998 9.25 8.45998 9.62 8.03998 9.66C4.89998 9.95 3.72998 11.43 3.72998 15.12V15.25C3.72998 19.32 5.16998 20.76 9.23998 20.76H15.76C19.83 20.76 21.27 19.32 21.27 15.25V15.12C21.27 11.41 20.08 9.93 16.88 9.66C16.47 9.62 16.16 9.26 16.2 8.85C16.24 8.44 16.59 8.13 17.01 8.17C20.99 8.51 22.77 10.66 22.77 15.13V15.26C22.77 20.15 20.67 22.25 15.76 22.25Z" fill="#161616"/>
<path d="M12.5 15.63C12.09 15.63 11.75 15.29 11.75 14.88V2C11.75 1.59 12.09 1.25 12.5 1.25C12.91 1.25 13.25 1.59 13.25 2V14.88C13.25 15.3 12.91 15.63 12.5 15.63Z" fill="#161616"/>
<path d="M12.5001 16.75C12.3101 16.75 12.1201 16.68 11.9701 16.53L8.62009 13.18C8.33009 12.89 8.33009 12.41 8.62009 12.12C8.91009 11.83 9.39009 11.83 9.68009 12.12L12.5001 14.94L15.3201 12.12C15.6101 11.83 16.0901 11.83 16.3801 12.12C16.6701 12.41 16.6701 12.89 16.3801 13.18L13.0301 16.53C12.8801 16.68 12.6901 16.75 12.5001 16.75Z" fill="#161616"/>
</svg>
