<svg width="66" height="12" viewBox="0 0 66 12" fill="none" xmlns="http://www.w3.org/2000/svg">
<path d="M4.99992 5.83751C6.96033 4.68496 8.52195 3.9138 11.0151 2.90017M4.99992 5.83751C3.82275 3.8436 2.48029 2.24164 0.637207 0.934326M4.99992 5.83751C4.99992 5.83751 7.75351 7.24917 11.0151 10.8849M4.99992 5.83751C2.89812 7.07325 -1.8928 10.866 3.08874 10.8849C6.76255 10.8989 5.9424 7.43389 4.99992 5.83751Z" stroke="white" stroke-opacity="0.32" stroke-width="1.72796"/>
<path d="M16.7557 11.3826C15.7986 11.3826 14.9409 11.206 14.1827 10.8527C13.4246 10.4946 12.8323 9.99528 12.4058 9.35461C11.9793 8.70922 11.7661 7.96726 11.7661 7.12874C11.7661 6.30433 11.9699 5.57415 12.3774 4.93819C12.7849 4.29751 13.3511 3.80052 14.0761 3.4472C14.8011 3.09388 15.6209 2.91724 16.5354 2.91724C17.4547 2.91724 18.2555 3.12215 18.9378 3.53201C19.6201 3.93713 20.1437 4.51656 20.5086 5.2703C20.8782 6.01933 21.063 6.89318 21.063 7.89189H14.3107C14.4907 8.43834 14.8414 8.85997 15.3626 9.15675C15.8839 9.45353 16.5449 9.60193 17.3457 9.60193C17.9569 9.60193 18.5706 9.51477 19.1866 9.34048C19.8026 9.16618 20.3546 8.92122 20.8427 8.60558V10.1884C20.3072 10.5653 19.6841 10.8597 18.9733 11.0717C18.2673 11.279 17.5281 11.3826 16.7557 11.3826ZM18.753 6.32317C18.6156 5.79085 18.355 5.381 17.9712 5.09365C17.5921 4.80157 17.1182 4.65553 16.5496 4.65553C15.9478 4.65553 15.4432 4.80628 15.0357 5.10778C14.6329 5.40456 14.3675 5.80969 14.2396 6.32317H18.753Z" fill="white" fill-opacity="0.32"/>
<path d="M23.69 3.13635L25.8295 8.83177L28.0186 3.13635H30.3286L32.4823 8.8459L34.6289 3.13635H37.0028L33.8612 11.1707H31.4374L29.1629 5.31982L26.8459 11.1707H24.4221L21.2876 3.13635H23.69Z" fill="white" fill-opacity="0.32"/>
<path d="M44.8875 9.36167C44.4847 10.0024 43.9754 10.4993 43.3593 10.8527C42.748 11.206 42.068 11.3826 41.3194 11.3826C40.5374 11.3826 39.841 11.206 39.2297 10.8527C38.6184 10.4993 38.1421 10.0024 37.8009 9.36167C37.4646 8.721 37.2964 7.9861 37.2964 7.15699C37.2964 6.32317 37.4646 5.58593 37.8009 4.94525C38.1421 4.29986 38.6159 3.80052 39.2227 3.4472C39.8337 3.09388 40.5327 2.91724 41.3194 2.91724C42.068 2.91724 42.748 3.09388 43.3593 3.4472C43.9754 3.79581 44.487 4.29045 44.8946 4.93111L45.1005 3.13629H47.5598L47.0908 7.14993L47.5598 11.1706H45.1005L44.8875 9.36167ZM39.7058 7.15699C39.7058 7.61865 39.803 8.03086 39.9974 8.3936C40.1915 8.75633 40.4594 9.03897 40.8005 9.24154C41.1465 9.44412 41.5372 9.54539 41.9733 9.54539C42.4139 9.54539 42.8333 9.44412 43.2314 9.24154C43.6294 9.03897 43.9776 8.75868 44.2762 8.40066C44.5794 8.03791 44.8163 7.62338 44.987 7.15699C44.8163 6.69062 44.5794 6.27606 44.2762 5.91333C43.9776 5.55059 43.6294 5.26794 43.2314 5.06538C42.8333 4.85811 42.4139 4.75447 41.9733 4.75447C41.5372 4.75447 41.1465 4.85811 40.8005 5.06538C40.4594 5.26794 40.1915 5.55296 39.9974 5.92039C39.803 6.28314 39.7058 6.69534 39.7058 7.15699Z" fill="white" fill-opacity="0.32"/>
<path d="M48.3367 3.86415L50.0213 3.313L51.0306 1.00232H52.3952V3.13633H55.9704V4.90997H52.3952V7.82834C52.3952 8.2523 52.4521 8.58678 52.5659 8.83175C52.6795 9.07671 52.862 9.25336 53.113 9.36171C53.3643 9.47006 53.7077 9.52424 54.1438 9.52424C54.5418 9.52424 54.8971 9.48654 55.21 9.41117C55.5275 9.33579 55.8284 9.22274 56.1126 9.07199V10.9163C55.8188 11.0435 55.4444 11.1518 54.9895 11.2413C54.5348 11.3356 54.0773 11.3827 53.6178 11.3827C52.3952 11.3827 51.4901 11.1 50.9027 10.5347C50.3151 9.9694 50.0213 9.18034 50.0213 8.16752V4.90997H48.3367V3.86415Z" fill="white" fill-opacity="0.32"/>
<path d="M61.6927 11.3826C60.7355 11.3826 59.878 11.206 59.1196 10.8527C58.3615 10.4946 57.7694 9.99528 57.3429 9.35461C56.9164 8.70922 56.7031 7.96726 56.7031 7.12874C56.7031 6.30433 56.9068 5.57415 57.3144 4.93819C57.7218 4.29751 58.288 3.80052 59.0131 3.4472C59.7382 3.09388 60.558 2.91724 61.4724 2.91724C62.3916 2.91724 63.1925 3.12215 63.8748 3.53201C64.5571 3.93713 65.0808 4.51656 65.4456 5.2703C65.8152 6.01933 66 6.89318 66 7.89189H59.2478C59.4278 8.43834 59.7785 8.85997 60.2997 9.15675C60.8208 9.45353 61.482 9.60193 62.2826 9.60193C62.8939 9.60193 63.5075 9.51477 64.1236 9.34048C64.7396 9.16618 65.2915 8.92122 65.7797 8.60558V10.1884C65.2442 10.5653 64.6211 10.8597 63.9103 11.0717C63.2044 11.279 62.4652 11.3826 61.6927 11.3826ZM63.69 6.32317C63.5526 5.79085 63.292 5.381 62.9083 5.09365C62.5291 4.80157 62.0553 4.65553 61.4865 4.65553C60.8848 4.65553 60.3802 4.80628 59.9726 5.10778C59.5698 5.40456 59.3044 5.80969 59.1765 6.32317H63.69Z" fill="white" fill-opacity="0.32"/>
</svg>
