<svg width="124" height="20" viewBox="0 0 124 20" fill="none" xmlns="http://www.w3.org/2000/svg">
<path d="M33.2637 5.16168C33.8506 5.16168 34.4434 5.21558 35.0422 5.32337C35.6411 5.43116 36.18 5.63476 36.6591 5.93417C37.1381 6.23359 37.5274 6.65277 37.8268 7.19171C38.1262 7.71868 38.2759 8.40135 38.2759 9.23971C38.2519 10.1739 38.0244 10.9823 37.5932 11.665C37.1621 12.3476 36.5213 12.8207 35.671 13.0842L38.5454 17.8808H35.2398L32.7427 13.4614H30.9283V17.8808H28V5.16168H33.2637ZM33.2457 10.9284C33.8805 10.9284 34.3895 10.8086 34.7728 10.5691C35.156 10.3296 35.3596 9.92237 35.3836 9.3475C35.3955 9.04808 35.3476 8.80256 35.2398 8.61094C35.132 8.40733 34.9823 8.25164 34.7907 8.14385C34.6111 8.02408 34.3895 7.94624 34.126 7.91031C33.8745 7.8624 33.599 7.83845 33.2996 7.83845H30.9283V10.9284H33.2457Z" fill="#161616"/>
<path d="M46.0398 18.0245C45.0697 18.0245 44.2313 17.8928 43.5247 17.6293C42.8301 17.3538 42.2552 16.9586 41.8001 16.4436C41.357 15.9286 41.0276 15.2999 40.812 14.5573C40.6084 13.8148 40.5066 12.9644 40.5066 12.0063V5.16168H43.4349V12.2219C43.4349 12.6291 43.4768 13.0243 43.5607 13.4076C43.6445 13.7788 43.7882 14.1082 43.9918 14.3956C44.1954 14.6831 44.4649 14.9166 44.8002 15.0963C45.1476 15.2639 45.5727 15.3478 46.0757 15.3478C46.5907 15.3478 47.0159 15.2579 47.3512 15.0783C47.6866 14.8986 47.9501 14.6651 48.1417 14.3777C48.3453 14.0902 48.483 13.7609 48.5549 13.3896C48.6267 13.0063 48.6627 12.6171 48.6627 12.2219V5.16168H51.5909V12.0063C51.5909 12.9524 51.4832 13.8028 51.2676 14.5573C51.064 15.2999 50.7346 15.9286 50.2795 16.4436C49.8364 16.9586 49.2615 17.3538 48.5549 17.6293C47.8602 17.8928 47.0219 18.0245 46.0398 18.0245Z" fill="#161616"/>
<path d="M60.8228 9.04209C60.7509 8.58698 60.5234 8.23966 60.1401 8.00013C59.7688 7.7606 59.2778 7.64083 58.667 7.64083C58.4514 7.64083 58.2358 7.66479 58.0203 7.71269C57.8167 7.74862 57.631 7.81449 57.4634 7.91031C57.2957 7.99414 57.1579 8.10792 57.0502 8.25164C56.9543 8.39536 56.9064 8.56303 56.9064 8.75466C56.9064 8.95826 56.9484 9.12593 57.0322 9.25767C57.128 9.38941 57.2597 9.50319 57.4274 9.599C57.6071 9.69482 57.8167 9.77865 58.0562 9.85051C58.3077 9.92237 58.5891 10.0002 58.9005 10.0841C59.5233 10.2517 60.1341 10.4014 60.733 10.5332C61.3318 10.6649 61.8647 10.8565 62.3318 11.1081C62.8109 11.3596 63.1941 11.7069 63.4816 12.15C63.781 12.5931 63.9427 13.2099 63.9666 14.0004C63.9666 14.707 63.8349 15.3178 63.5714 15.8328C63.3079 16.3358 62.9486 16.749 62.4935 17.0724C62.0504 17.3958 61.5294 17.6353 60.9306 17.791C60.3317 17.9467 59.703 18.0245 59.0443 18.0245C58.3855 18.0245 57.7448 17.9527 57.122 17.8089C56.4992 17.6532 55.9363 17.4077 55.4333 17.0724C54.9303 16.7251 54.5171 16.2819 54.1937 15.743C53.8704 15.204 53.6788 14.5453 53.6189 13.7669H56.5831C56.6549 14.0663 56.7747 14.3178 56.9424 14.5214C57.11 14.713 57.3077 14.8687 57.5352 14.9885C57.7747 15.1082 58.0382 15.1981 58.3257 15.2579C58.6251 15.3058 58.9305 15.3298 59.2419 15.3298C59.4335 15.3298 59.6371 15.3118 59.8527 15.2759C60.0683 15.24 60.2599 15.1801 60.4276 15.0963C60.5952 15.0004 60.733 14.8807 60.8407 14.737C60.9605 14.5813 61.0204 14.3956 61.0204 14.18C61.0204 13.8687 60.9066 13.6351 60.6791 13.4794C60.4635 13.3117 60.188 13.186 59.8527 13.1022C59.0383 12.9225 58.2778 12.7429 57.5711 12.5632C56.8645 12.3836 56.2417 12.15 55.7028 11.8626C55.1758 11.5751 54.7566 11.1979 54.4453 10.7308C54.1458 10.2637 53.9961 9.64691 53.9961 8.88041C53.9961 8.11391 54.1518 7.47915 54.4632 6.97613C54.7746 6.47312 55.1698 6.07789 55.6489 5.79045C56.1399 5.49104 56.6849 5.28744 57.2837 5.17965C57.8825 5.05988 58.4694 5 59.0443 5C59.667 5.02395 60.2419 5.11977 60.7689 5.28744C61.3078 5.44313 61.7809 5.68865 62.1881 6.024C62.5953 6.35934 62.9247 6.77852 63.1762 7.28154C63.4397 7.77258 63.6073 8.35943 63.6792 9.04209H60.8228Z" fill="#161616"/>
<path d="M72.9456 9.04209C72.8737 8.58698 72.6461 8.23966 72.2629 8.00013C71.8916 7.7606 71.4006 7.64083 70.7898 7.64083C70.5742 7.64083 70.3586 7.66479 70.143 7.71269C69.9394 7.74862 69.7538 7.81449 69.5861 7.91031C69.4184 7.99414 69.2807 8.10792 69.1729 8.25164C69.0771 8.39536 69.0292 8.56303 69.0292 8.75466C69.0292 8.95826 69.0711 9.12593 69.155 9.25767C69.2508 9.38941 69.3825 9.50319 69.5502 9.599C69.7298 9.69482 69.9394 9.77865 70.179 9.85051C70.4305 9.92237 70.7119 10.0002 71.0233 10.0841C71.6461 10.2517 72.2569 10.4014 72.8557 10.5332C73.4546 10.6649 73.9875 10.8565 74.4546 11.1081C74.9337 11.3596 75.3169 11.7069 75.6044 12.15C75.9038 12.5931 76.0654 13.2099 76.0894 14.0004C76.0894 14.707 75.9577 15.3178 75.6942 15.8328C75.4307 16.3358 75.0714 16.749 74.6163 17.0724C74.1732 17.3958 73.6522 17.6353 73.0533 17.791C72.4545 17.9467 71.8257 18.0245 71.167 18.0245C70.5083 18.0245 69.8676 17.9527 69.2448 17.8089C68.622 17.6532 68.0591 17.4077 67.5561 17.0724C67.0531 16.7251 66.6399 16.2819 66.3165 15.743C65.9932 15.204 65.8015 14.5453 65.7416 13.7669H68.7058C68.7777 14.0663 68.8975 14.3178 69.0651 14.5214C69.2328 14.713 69.4304 14.8687 69.658 14.9885C69.8975 15.1082 70.161 15.1981 70.4484 15.2579C70.7479 15.3058 71.0533 15.3298 71.3646 15.3298C71.5563 15.3298 71.7599 15.3118 71.9755 15.2759C72.191 15.24 72.3827 15.1801 72.5503 15.0963C72.718 15.0004 72.8557 14.8807 72.9635 14.737C73.0833 14.5813 73.1432 14.3956 73.1432 14.18C73.1432 13.8687 73.0294 13.6351 72.8018 13.4794C72.5863 13.3117 72.3108 13.186 71.9755 13.1022C71.161 12.9225 70.4005 12.7429 69.6939 12.5632C68.9873 12.3836 68.3645 12.15 67.8256 11.8626C67.2986 11.5751 66.8794 11.1979 66.568 10.7308C66.2686 10.2637 66.1189 9.64691 66.1189 8.88041C66.1189 8.11391 66.2746 7.47915 66.586 6.97613C66.8974 6.47312 67.2926 6.07789 67.7717 5.79045C68.2627 5.49104 68.8076 5.28744 69.4065 5.17965C70.0053 5.05988 70.5922 5 71.167 5C71.7898 5.02395 72.3647 5.11977 72.8917 5.28744C73.4306 5.44313 73.9037 5.68865 74.3109 6.024C74.7181 6.35934 75.0474 6.77852 75.299 7.28154C75.5624 7.77258 75.7301 8.35943 75.802 9.04209H72.9456Z" fill="#161616"/>
<path d="M76.8129 7.83845V5.16168H87.502V7.83845H83.6216V17.8808H80.6933V7.83845H76.8129Z" fill="#161616"/>
<path d="M94.1934 5.16168C94.7802 5.16168 95.373 5.21558 95.9719 5.32337C96.5707 5.43116 97.1096 5.63476 97.5887 5.93417C98.0678 6.23359 98.457 6.65277 98.7564 7.19171C99.0558 7.71868 99.2055 8.40135 99.2055 9.23971C99.1816 10.1739 98.954 10.9823 98.5229 11.665C98.0917 12.3476 97.451 12.8207 96.6006 13.0842L99.475 17.8808H96.1695L93.6724 13.4614H91.8579V17.8808H88.9296V5.16168H94.1934ZM94.1754 10.9284C94.8101 10.9284 95.3191 10.8086 95.7024 10.5691C96.0857 10.3296 96.2892 9.92237 96.3132 9.3475C96.3252 9.04808 96.2773 8.80256 96.1695 8.61094C96.0617 8.40733 95.912 8.25164 95.7204 8.14385C95.5407 8.02408 95.3191 7.94624 95.0557 7.91031C94.8042 7.8624 94.5287 7.83845 94.2293 7.83845H91.8579V10.9284H94.1754Z" fill="#161616"/>
<path d="M107.239 5C108.209 5 109.083 5.1557 109.862 5.46709C110.652 5.7665 111.323 6.20365 111.874 6.77852C112.437 7.34142 112.868 8.0181 113.167 8.80855C113.467 9.599 113.616 10.4793 113.616 11.4494C113.616 12.4075 113.467 13.2878 113.167 14.0902C112.868 14.8926 112.437 15.5873 111.874 16.1741C111.323 16.761 110.652 17.2161 109.862 17.5395C109.071 17.8628 108.185 18.0185 107.203 18.0066C106.209 18.0066 105.317 17.8509 104.526 17.5395C103.748 17.2161 103.083 16.767 102.532 16.1921C101.981 15.6172 101.556 14.9346 101.257 14.1441C100.969 13.3417 100.825 12.4614 100.825 11.5033C100.825 10.5332 100.975 9.6529 101.275 8.86244C101.586 8.06001 102.017 7.37136 102.568 6.79649C103.131 6.22161 103.808 5.77848 104.598 5.46709C105.389 5.1557 106.269 5 107.239 5ZM103.826 11.4853C103.826 11.9764 103.891 12.4494 104.023 12.9045C104.167 13.3596 104.377 13.7669 104.652 14.1261C104.939 14.4735 105.299 14.7549 105.73 14.9705C106.161 15.1861 106.676 15.2999 107.275 15.3118C107.85 15.3118 108.347 15.204 108.766 14.9885C109.185 14.7729 109.532 14.4854 109.808 14.1261C110.083 13.7669 110.287 13.3596 110.419 12.9045C110.55 12.4494 110.616 11.9883 110.616 11.5212C110.616 11.0542 110.55 10.5931 110.419 10.1379C110.299 9.68284 110.101 9.27564 109.826 8.91634C109.55 8.55704 109.197 8.26362 108.766 8.03606C108.347 7.80851 107.838 7.69473 107.239 7.69473C106.652 7.69473 106.143 7.80252 105.712 8.0181C105.281 8.23367 104.927 8.52111 104.652 8.88041C104.377 9.22773 104.167 9.62895 104.023 10.0841C103.891 10.5392 103.826 11.0063 103.826 11.4853Z" fill="#161616"/>
<path d="M124 13.3177C124 14.8388 123.641 16.0005 122.922 16.8029C122.215 17.6053 121.114 18.0066 119.617 18.0066C118.12 18.0066 116.964 17.6113 116.149 16.8209C115.347 16.0184 114.946 14.9106 114.946 13.4974V13.3357H117.874C117.874 13.5752 117.898 13.8148 117.946 14.0543C117.994 14.2938 118.078 14.5094 118.197 14.701C118.329 14.8926 118.503 15.0483 118.718 15.1681C118.934 15.2879 119.203 15.3478 119.527 15.3478C120.078 15.3478 120.473 15.1741 120.712 14.8268C120.952 14.4675 121.072 14.0483 121.072 13.5692V5.16168H124V13.3177Z" fill="#161616"/>
<rect x="12.4836" y="10.6313" width="6.24178" height="9.30233" fill="#161616"/>
<path d="M12.4836 7.97342V4.45183L6.24178 10.6312V7.97342H0L7.96823 0L12.4836 4.45183L16.0693 7.97342L18.7253 10.6312H12.4836V7.97342Z" fill="#161616"/>
<rect x="0.0664062" y="7.90674" width="6.24178" height="12.093" fill="#161616"/>
</svg>
