<svg width="24" height="24" viewBox="0 0 24 24" fill="none" xmlns="http://www.w3.org/2000/svg">
<path d="M16.6178 7.46621C16.6223 7.46621 16.6283 7.46621 16.6343 7.46621C16.7911 7.46621 16.9366 7.51496 17.0558 7.59896L17.0536 7.59746C17.1406 7.67321 17.1991 7.77971 17.2133 7.89971V7.90196C17.2283 7.99346 17.2366 8.09846 17.2366 8.20571C17.2366 8.25446 17.2351 8.30246 17.2313 8.35046V8.34371C17.0626 10.1205 16.3306 14.4292 15.9586 16.4182C15.8011 17.2605 15.4913 17.5425 15.1913 17.5695C14.5396 17.6302 14.0446 17.139 13.4131 16.725C12.4246 16.0762 11.8658 15.6727 10.9066 15.0405C9.79733 14.3107 10.5166 13.908 11.1481 13.2525C11.3138 13.08 14.1871 10.4662 14.2433 10.2292C14.2463 10.215 14.2478 10.1992 14.2478 10.1827C14.2478 10.1242 14.2261 10.071 14.1908 10.0305C14.1518 10.005 14.1031 9.99071 14.0521 9.99071C14.0183 9.99071 13.9861 9.99746 13.9561 10.0087L13.9576 10.008C13.8586 10.0305 12.2796 11.074 9.22058 13.1385C8.88683 13.4017 8.46533 13.5682 8.00633 13.5877H8.00183C7.35158 13.509 6.76133 13.3642 6.20108 13.158L6.25658 13.176C5.55308 12.9465 4.99433 12.8257 5.04233 12.4372C5.06783 12.2352 5.34633 12.0285 5.87783 11.817C9.15183 10.3905 11.3351 9.45021 12.4276 8.99621C13.6328 8.35646 15.0301 7.82996 16.4993 7.48871L16.6171 7.46546L16.6178 7.46621ZM11.9738 0.704956C5.74733 0.719956 0.705078 5.77121 0.705078 12C0.705078 18.2377 5.76158 23.295 12.0001 23.295C18.2386 23.295 23.2951 18.2385 23.2951 12C23.2951 5.77121 18.2528 0.719956 12.0278 0.704956H12.0263C12.0088 0.704956 11.9913 0.704956 11.9738 0.704956Z" fill="white"/>
</svg>
